<svg xmlns="http://www.w3.org/2000/svg" xmlns:xlink="http://www.w3.org/1999/xlink" width="844.326" height="370.545" viewBox="0 0 844.326 370.545">
  <defs>
    <clipPath id="clip-path">
      <rect id="Rectangle_9" data-name="Rectangle 9" width="844.326" height="370.544" fill="#ffec37"/>
    </clipPath>
  </defs>
  <g id="Group_23" data-name="Group 23" transform="translate(0)">
    <path id="Path_2" data-name="Path 2" d="M175.825,0V113.507L146.446,3.867,128.191,8.758,157.573,118.4,100.818,20.1l-16.364,9.45,56.755,98.3L60.944,47.581,47.584,60.945,127.842,141.2l-98.3-56.748L20.1,100.818l98.292,56.752L8.758,128.195,3.867,146.444l109.64,29.382H0v18.894H113.507L3.867,224.1,8.758,242.35l109.63-29.375L20.1,269.723l9.45,16.367,98.3-56.748L47.584,309.6l13.361,13.364L141.209,242.7,84.454,341l16.364,9.447,56.755-98.3L128.191,361.783l18.255,4.895,29.379-109.64V370.545h18.894V257.038L224.1,366.678l18.255-4.895L212.971,252.146l56.755,98.3L286.09,341l-56.755-98.3L309.6,322.961,322.96,309.6,242.7,229.342,341,286.091l9.45-16.367-98.292-56.748L361.783,242.35l4.895-18.252-109.64-29.379H370.544V175.826H257.037l109.64-29.382-4.895-18.249L252.156,157.57l98.292-56.752L341,84.454,242.7,141.2,322.96,60.945,309.6,47.581l-80.265,80.268,56.755-98.3L269.726,20.1l-56.755,98.3L242.353,8.758,224.1,3.867l-29.379,109.64V0Z" transform="translate(0 0.001)" fill="#ffec37"/>
    <g id="Group_10" data-name="Group 10" transform="translate(0 0)">
      <g id="Group_9" data-name="Group 9" clip-path="url(#clip-path)">
        <path id="Path_3" data-name="Path 3" d="M155.207,85.247l4.77,5.14h13.448v3.42H127.935v-3.42H137.6l5.016-5.14V15.538L137.6,10.4h-9.662V6.978h37.3c19.687,0,32.164,5.379,32.164,22.381,0,14.8-14.066,25.438-31.552,25.438H160.22v-4.28h4.65c11.862,0,18.709-6.6,18.709-19.935,0-12.474-8.681-18.712-17.486-18.712a28.62,28.62,0,0,0-10.885,2.08Z" transform="translate(301.861 16.464)" fill="#ffec37"/>
        <path id="Path_4" data-name="Path 4" d="M164.733,28.577a14.7,14.7,0,0,0,.857,5.137l-11.62,1.71c-.491-.853-.732-2.321-.732-4.767,0-11.13,12.1-16.142,20.913-16.142,15.044,0,20.3,8.194,20.3,15.531V68.689L198,72.606h5.016v3.423l-21.034,1.223,1.344-10.4h-.245c-5.869,6.85-12.229,10.764-18.712,10.764-8.315,0-14.553-5.624-14.553-15.531,0-10.152,7.828-17.856,22.26-20.059l10.76-1.71V27.965c0-6.6-3.178-9.907-8.805-9.907s-9.292,5.627-9.292,10.519m18.1,15.655-6.722,1.347c-10.885,2.446-14.19,8.439-14.19,14.059,0,6.363,2.815,10.522,7.952,10.522,4.646,0,8.8-2.57,12.961-6.974Z" transform="translate(353.474 34.246)" fill="#ffec37"/>
        <path id="Path_5" data-name="Path 5" d="M188.28,68.691l3.423,3.914h9.662v3.423H167.246V72.605h6.235l3.544-3.914V23.443l-3.544-3.914h-6.235V16.105l19.441-1.223V32.127h.487c3.43-7.707,9.42-17.614,17.49-17.614,4.529,0,7.952,1.959,9.175,3.793l-4.895,12.108h-.487a10.486,10.486,0,0,0-8.315-3.669c-4.159,0-8.684,3.3-11.862,7.828Z" transform="translate(394.614 34.243)" fill="#ffec37"/>
        <path id="Path_6" data-name="Path 6" d="M201.8,30.362V64.727c0,6.729-.49,15.9,6.6,15.9,2.563,0,4.767-1.465,7.945-4.767l1.958,1.71c-3.668,5.382-7.582,10.273-15.286,10.273-11.741,0-12.843-10.515-12.843-21.034V30.974l-8.19-1.834V26.328h7.945l9.662-16.146h2.2V26.328h16.384v4.035Z" transform="translate(429.393 24.024)" fill="#ffec37"/>
        <path id="Path_7" data-name="Path 7" d="M215.62,86.47l3.665,3.917H226.5v3.423H193.975V90.387h6.6L204,86.47V41.221l-3.544-3.914h-6.6v-3.42l21.769-1.226ZM209.872,21.9a7.46,7.46,0,1,1,7.461-7.458,7.407,7.407,0,0,1-7.461,7.458m26.661,15.41H228.46v-3.42L251.7,32.661V95.521c0,12.6-6.726,23.728-20.671,23.728-8.926.124-13.693-3.917-15.04-6.85l9.171-5.993c.978,3.669,5.258,9.05,9.171,9.05,3.669,0,5.748-2.933,5.748-11.5V41.221Zm8.315-15.41a7.46,7.46,0,1,1,7.461-7.458,7.41,7.41,0,0,1-7.461,7.458" transform="translate(457.388 16.464)" fill="#ffec37"/>
        <path id="Path_8" data-name="Path 8" d="M184.93,50.277l-4.038,5.133L158.88,109.223h-4.159L132.831,55.41l-5.261-5.133v-2.2h27.887V51.5h-6.118l-3.427,3.91L160.836,94.3h.245L175.268,55.41l-3.427-3.91H165.73V48.077h19.2Z" transform="translate(300.999 113.436)" fill="#ffec37"/>
        <path id="Path_9" data-name="Path 9" d="M176.073,110.708c-18.1,0-30.084-13.572-30.084-32.039,0-17.856,12.47-31.065,29.715-31.065,17.61,0,29.967,12.474,29.967,31.186,0,18.1-12.6,31.918-29.6,31.918m-1.959-59.07c-11.13,0-15.531,12.108-15.531,23.6,0,12.232,5.993,31.431,19.079,31.431,11.006,0,15.286-12.595,15.286-23.846,0-12.108-5.872-31.189-18.833-31.189" transform="translate(344.459 112.318)" fill="#ffec37"/>
        <path id="Path_10" data-name="Path 10" d="M196.565,110.708c-18.1,0-30.084-13.572-30.084-32.039,0-17.856,12.47-31.065,29.715-31.065,17.61,0,29.967,12.474,29.967,31.186,0,18.1-12.6,31.918-29.6,31.918m-1.959-59.07c-11.13,0-15.531,12.108-15.531,23.6,0,12.232,5.993,31.431,19.078,31.431,11.006,0,15.286-12.595,15.286-23.846,0-12.108-5.872-31.189-18.833-31.189" transform="translate(392.809 112.318)" fill="#ffec37"/>
        <path id="Path_11" data-name="Path 11" d="M207.461,101.781l3.423,3.914h9.662v3.423H186.427V105.7h6.235l3.544-3.914V56.532l-3.544-3.914h-6.235V49.2l19.441-1.223V65.217h.487c3.43-7.707,9.42-17.614,17.49-17.614,4.529,0,7.952,1.959,9.175,3.793L228.125,63.5h-.487a10.486,10.486,0,0,0-8.315-3.669c-4.159,0-8.684,3.3-11.862,7.828Z" transform="translate(439.871 112.318)" fill="#ffec37"/>
        <path id="Path_12" data-name="Path 12" d="M148.248,92.8h.242c8.315-10.149,14.8-12.108,19.082-12.108,9.047,0,14.429,4.28,16.142,12.108,8.315-10.149,14.8-12.108,19.078-12.108,11.372,0,16.875,7.7,16.875,19.078v35.1l3.669,3.914h6.118v3.423h-30.7v-3.423h5.869l3.423-3.914V101.484c0-9.05-3.178-13.089-8.93-13.089s-10.76,3.917-14.678,7.952V134.87l3.672,3.914h5.627v3.423H163.534v-3.423H169.4l3.427-3.914V101.484c0-9.05-3.182-13.089-8.684-13.089-5.993,0-11.009,3.917-14.919,7.952V134.87l3.423,3.914h5.872v3.423h-30.7v-3.423h6.235l3.544-3.914V89.618l-3.544-3.91h-6.235V82.284l21.4-1.223Z" transform="translate(301.603 190.391)" fill="#ffec37"/>
        <path id="Path_13" data-name="Path 13" d="M189.867,143.8c-18.1,0-30.084-13.572-30.084-32.039,0-17.856,12.47-31.065,29.715-31.065,17.61,0,29.967,12.474,29.967,31.186,0,18.1-12.6,31.918-29.6,31.918m-1.959-59.07c-11.13,0-15.531,12.108-15.531,23.6,0,12.232,5.993,31.431,19.078,31.431,11.006,0,15.286-12.595,15.286-23.846,0-12.108-5.872-31.189-18.833-31.189" transform="translate(377.005 190.391)" fill="#ffec37"/>
        <path id="Path_14" data-name="Path 14" d="M200.763,134.87l3.423,3.914h9.662v3.423H179.729v-3.423h6.235l3.544-3.914V89.621l-3.544-3.914h-6.235V82.284l19.441-1.223V98.306h.487c3.43-7.707,9.42-17.614,17.489-17.614,4.529,0,7.952,1.959,9.175,3.793l-4.895,12.108h-.487a10.486,10.486,0,0,0-8.315-3.669c-4.159,0-8.684,3.3-11.862,7.828Z" transform="translate(424.068 190.391)" fill="#ffec37"/>
        <path id="Path_15" data-name="Path 15" d="M241.083,90.723c2.08,2.812,3.178,8.315,3.178,12.474,0,12.47-11.614,20.3-24.215,20.3-1.1,0-7.945-.363-10.391-1.589-2.694,3.423-4.895,5.872-4.895,8.93,0,4.035,3.548,4.28,6.235,4.28a17.057,17.057,0,0,0,2.694-.245l17.241-2.691a56.411,56.411,0,0,1,6.484-.857c7.949,0,11.13,6.971,11.13,13.455,0,16.388-20.426,22.868-34.855,22.868-11.862,0-18.712-2.933-18.712-8.805,0-4.159,2.933-6.6,9.662-11.987-3.793-1.1-8.439-4.522-8.439-10.273a13.659,13.659,0,0,1,3.914-9.168l6.484-7.1c-4.895-3.178-10.4-9.417-10.4-17.368,0-12.961,11.13-22.257,24.581-22.257,4.77,0,11.5.487,16.142,4.525V82.284h16.387v3.3Zm-4.159,51.85c-.487,0-3.548.611-7.458,1.223l-21.282,3.057a12.154,12.154,0,0,0-3.668,8.2c0,4.891,7.34,7.334,15.655,7.334,11.254,0,22.136-5.258,22.136-14.429,0-3.548-1.713-5.382-5.382-5.382M218.582,84.727c-8.56,0-10.149,7.461-10.149,14.311,0,8.557,4.156,20.547,14.059,20.547,7.71,0,10.156-5.14,10.156-12.353,0-7.582-3.551-22.505-14.066-22.505" transform="translate(460.047 190.391)" fill="#ffec37"/>
        <path id="Path_16" data-name="Path 16" d="M261.894,105.4l-37.3-.978c-.121,1.347-.121,2.688-.121,3.91,0,15.413,7.7,25.562,19.445,25.562,9.538,0,14.184-3.793,19.441-13.576l2.94,1.344c-3.427,10.273-10.273,22.136-26.049,22.136-15.413,0-26.416-12.108-26.416-30.816,0-17.735,11.614-32.288,27.269-32.288,18.47,0,23.483,15.165,22.257,23.358Zm-14.553-4.77,2.57-2.2c0-7.337-2.446-13.7-11.5-13.7-7.828,0-12.232,7.952-13.33,15.9Z" transform="translate(504.535 190.391)" fill="#ffec37"/>
        <path id="Path_17" data-name="Path 17" d="M251.581,92.924h.242c8.315-10.149,15.531-12.232,19.811-12.232,11.375,0,17.489,7.707,17.489,19.078v35.1l3.669,3.914h6.118v3.423H267.478v-3.423h6.6l3.427-3.914V101.484c0-9.047-5.14-13.085-10.885-13.085s-10.156,3.914-14.066,7.949V134.87l3.423,3.914h6.484v3.423H231.159v-3.423h6.235l3.544-3.914V89.621l-3.544-3.914h-6.235V82.284l21.4-1.223Z" transform="translate(545.416 190.391)" fill="#ffec37"/>
      </g>
    </g>
  </g>
</svg>
